<mxfile host="Electron" modified="2024-07-08T10:49:17.406Z" agent="Mozilla/5.0 (Macintosh; Intel Mac OS X 10_15_7) AppleWebKit/537.36 (KHTML, like Gecko) draw.io/24.6.4 Chrome/124.0.6367.207 Electron/30.0.6 Safari/537.36" etag="y__SJHwRmWWBJJVdhiIL" version="24.6.4" type="device">
  <diagram name="ページ1" id="5wtCRg2v8s2M_8qk7qxJ">
    <mxGraphModel dx="1941" dy="776" grid="1" gridSize="10" guides="1" tooltips="1" connect="1" arrows="1" fold="1" page="1" pageScale="1" pageWidth="827" pageHeight="1169" math="0" shadow="0">
      <root>
        <mxCell id="0" />
        <mxCell id="1" parent="0" />
        <mxCell id="i6-yZ0_YRzh5YXkbMCiC-22" value="" style="rounded=0;whiteSpace=wrap;html=1;" vertex="1" parent="1">
          <mxGeometry x="164" y="280" width="390" height="360" as="geometry" />
        </mxCell>
        <mxCell id="i6-yZ0_YRzh5YXkbMCiC-13" value="" style="rounded=0;whiteSpace=wrap;html=1;align=left;container=1;" vertex="1" parent="1">
          <mxGeometry x="-110" y="50" width="310" height="190" as="geometry" />
        </mxCell>
        <mxCell id="i6-yZ0_YRzh5YXkbMCiC-17" value="ログイン&lt;div&gt;メールアドレス&lt;/div&gt;&lt;div&gt;🔳&lt;/div&gt;&lt;div&gt;パスワード&lt;/div&gt;&lt;div&gt;🔳&lt;/div&gt;&lt;div&gt;ログイン&lt;/div&gt;&lt;div&gt;&lt;br&gt;&lt;/div&gt;&lt;div&gt;ゲストログインはこちら&lt;/div&gt;" style="text;strokeColor=none;align=center;fillColor=none;html=1;verticalAlign=middle;whiteSpace=wrap;rounded=0;container=1;" vertex="1" parent="i6-yZ0_YRzh5YXkbMCiC-13" collapsed="1">
          <mxGeometry x="80" y="60" width="170" height="130" as="geometry">
            <mxRectangle x="80" y="60" width="150" height="100" as="alternateBounds" />
          </mxGeometry>
        </mxCell>
        <mxCell id="i6-yZ0_YRzh5YXkbMCiC-2" value="" style="endArrow=classic;html=1;rounded=0;exitX=1.013;exitY=0.426;exitDx=0;exitDy=0;exitPerimeter=0;" edge="1" parent="1" source="i6-yZ0_YRzh5YXkbMCiC-13">
          <mxGeometry width="50" height="50" relative="1" as="geometry">
            <mxPoint x="484" y="130" as="sourcePoint" />
            <mxPoint x="440" y="130" as="targetPoint" />
          </mxGeometry>
        </mxCell>
        <mxCell id="i6-yZ0_YRzh5YXkbMCiC-4" value="" style="endArrow=classic;html=1;rounded=0;exitX=1;exitY=0.75;exitDx=0;exitDy=0;entryX=0.184;entryY=-0.021;entryDx=0;entryDy=0;entryPerimeter=0;" edge="1" parent="1" source="i6-yZ0_YRzh5YXkbMCiC-13" target="i6-yZ0_YRzh5YXkbMCiC-22">
          <mxGeometry width="50" height="50" relative="1" as="geometry">
            <mxPoint x="414" y="200" as="sourcePoint" />
            <mxPoint x="320" y="250" as="targetPoint" />
          </mxGeometry>
        </mxCell>
        <mxCell id="i6-yZ0_YRzh5YXkbMCiC-6" value="" style="endArrow=classic;html=1;rounded=0;" edge="1" parent="1">
          <mxGeometry width="50" height="50" relative="1" as="geometry">
            <mxPoint x="706.648344823303" y="240" as="sourcePoint" />
            <mxPoint x="560" y="340" as="targetPoint" />
          </mxGeometry>
        </mxCell>
        <mxCell id="i6-yZ0_YRzh5YXkbMCiC-9" value="いいねCRUD" style="whiteSpace=wrap;html=1;aspect=fixed;" vertex="1" parent="1">
          <mxGeometry x="700" y="800" width="80" height="80" as="geometry" />
        </mxCell>
        <mxCell id="i6-yZ0_YRzh5YXkbMCiC-10" value="" style="endArrow=classic;startArrow=classic;html=1;rounded=0;entryX=-0.01;entryY=0.833;entryDx=0;entryDy=0;entryPerimeter=0;exitX=0.448;exitY=0;exitDx=0;exitDy=0;exitPerimeter=0;" edge="1" parent="1" source="i6-yZ0_YRzh5YXkbMCiC-48" target="i6-yZ0_YRzh5YXkbMCiC-22">
          <mxGeometry width="50" height="50" relative="1" as="geometry">
            <mxPoint x="20" y="560" as="sourcePoint" />
            <mxPoint x="70" y="530" as="targetPoint" />
            <Array as="points">
              <mxPoint x="100" y="570" />
            </Array>
          </mxGeometry>
        </mxCell>
        <mxCell id="i6-yZ0_YRzh5YXkbMCiC-11" value="" style="endArrow=classic;startArrow=classic;html=1;rounded=0;exitX=0.172;exitY=0;exitDx=0;exitDy=0;exitPerimeter=0;" edge="1" parent="1" source="i6-yZ0_YRzh5YXkbMCiC-98">
          <mxGeometry width="50" height="50" relative="1" as="geometry">
            <mxPoint x="265" y="730" as="sourcePoint" />
            <mxPoint x="295" y="640" as="targetPoint" />
          </mxGeometry>
        </mxCell>
        <mxCell id="i6-yZ0_YRzh5YXkbMCiC-12" value="" style="endArrow=classic;startArrow=classic;html=1;rounded=0;exitX=0.4;exitY=-0.037;exitDx=0;exitDy=0;exitPerimeter=0;" edge="1" parent="1" source="i6-yZ0_YRzh5YXkbMCiC-9">
          <mxGeometry width="50" height="50" relative="1" as="geometry">
            <mxPoint x="440" y="490" as="sourcePoint" />
            <mxPoint x="630" y="660" as="targetPoint" />
          </mxGeometry>
        </mxCell>
        <mxCell id="i6-yZ0_YRzh5YXkbMCiC-14" value="LARAVEL掲示板" style="text;strokeColor=none;align=center;fillColor=none;html=1;verticalAlign=middle;whiteSpace=wrap;rounded=0;container=1;" vertex="1" parent="1">
          <mxGeometry x="-100" y="60" width="100" height="30" as="geometry" />
        </mxCell>
        <mxCell id="i6-yZ0_YRzh5YXkbMCiC-15" value="" style="endArrow=none;html=1;rounded=0;entryX=0.452;entryY=0.5;entryDx=0;entryDy=0;entryPerimeter=0;" edge="1" parent="1" source="i6-yZ0_YRzh5YXkbMCiC-13">
          <mxGeometry width="50" height="50" relative="1" as="geometry">
            <mxPoint x="109.88" y="90" as="sourcePoint" />
            <mxPoint x="-110.00000000000011" y="100" as="targetPoint" />
          </mxGeometry>
        </mxCell>
        <mxCell id="i6-yZ0_YRzh5YXkbMCiC-16" value="" style="endArrow=none;html=1;rounded=0;" edge="1" parent="1">
          <mxGeometry width="50" height="50" relative="1" as="geometry">
            <mxPoint x="189.76" y="100" as="sourcePoint" />
            <mxPoint x="-100" y="100" as="targetPoint" />
            <Array as="points" />
          </mxGeometry>
        </mxCell>
        <mxCell id="i6-yZ0_YRzh5YXkbMCiC-18" value="" style="rounded=0;whiteSpace=wrap;html=1;" vertex="1" parent="1">
          <mxGeometry x="445" y="50" width="310" height="190" as="geometry" />
        </mxCell>
        <mxCell id="i6-yZ0_YRzh5YXkbMCiC-20" value="" style="endArrow=none;html=1;rounded=0;" edge="1" parent="1">
          <mxGeometry width="50" height="50" relative="1" as="geometry">
            <mxPoint x="743.76" y="100" as="sourcePoint" />
            <mxPoint x="454" y="100" as="targetPoint" />
            <Array as="points" />
          </mxGeometry>
        </mxCell>
        <mxCell id="i6-yZ0_YRzh5YXkbMCiC-21" value="&lt;div&gt;&lt;br&gt;&lt;/div&gt;&lt;div&gt;&lt;br&gt;&lt;/div&gt;ユーザー登録&lt;div&gt;ユーザー名&lt;/div&gt;&lt;div&gt;🔳&lt;br&gt;&lt;div&gt;メールアドレス&lt;/div&gt;&lt;div&gt;🔳&lt;/div&gt;&lt;div&gt;パスワード&lt;/div&gt;&lt;div&gt;🔳&lt;/div&gt;&lt;div&gt;登録　戻る&lt;/div&gt;&lt;div&gt;&lt;br&gt;&lt;/div&gt;&lt;div&gt;&lt;br&gt;&lt;/div&gt;&lt;/div&gt;" style="text;strokeColor=none;align=center;fillColor=none;html=1;verticalAlign=middle;whiteSpace=wrap;rounded=0;container=1;" vertex="1" collapsed="1" parent="1">
          <mxGeometry x="515" y="110" width="170" height="130" as="geometry">
            <mxRectangle x="80" y="60" width="150" height="100" as="alternateBounds" />
          </mxGeometry>
        </mxCell>
        <mxCell id="i6-yZ0_YRzh5YXkbMCiC-23" value="LARAVEL掲示板" style="text;strokeColor=none;align=center;fillColor=none;html=1;verticalAlign=middle;whiteSpace=wrap;rounded=0;container=1;" vertex="1" parent="1">
          <mxGeometry x="454" y="60" width="100" height="30" as="geometry" />
        </mxCell>
        <mxCell id="i6-yZ0_YRzh5YXkbMCiC-24" value="LARAVEL掲示板" style="text;strokeColor=none;align=center;fillColor=none;html=1;verticalAlign=middle;whiteSpace=wrap;rounded=0;container=1;" vertex="1" parent="1">
          <mxGeometry x="200" y="290" width="100" height="30" as="geometry" />
        </mxCell>
        <mxCell id="i6-yZ0_YRzh5YXkbMCiC-26" value="" style="endArrow=none;html=1;rounded=0;" edge="1" parent="1">
          <mxGeometry width="50" height="50" relative="1" as="geometry">
            <mxPoint x="550" y="330" as="sourcePoint" />
            <mxPoint x="180" y="330" as="targetPoint" />
            <Array as="points" />
          </mxGeometry>
        </mxCell>
        <mxCell id="i6-yZ0_YRzh5YXkbMCiC-27" value="ログイン中：山田様　ログアウト" style="text;strokeColor=none;align=center;fillColor=none;html=1;verticalAlign=middle;whiteSpace=wrap;rounded=0;container=1;" vertex="1" parent="1">
          <mxGeometry x="414" y="290" width="130" height="30" as="geometry" />
        </mxCell>
        <mxCell id="i6-yZ0_YRzh5YXkbMCiC-28" value="メッセージ投稿欄" style="text;strokeColor=none;align=center;fillColor=none;html=1;verticalAlign=middle;whiteSpace=wrap;rounded=0;container=1;" vertex="1" parent="1">
          <mxGeometry x="190" y="330" width="100" height="30" as="geometry" />
        </mxCell>
        <mxCell id="i6-yZ0_YRzh5YXkbMCiC-29" value="" style="rounded=0;whiteSpace=wrap;html=1;" vertex="1" parent="1">
          <mxGeometry x="190" y="360" width="140" height="40" as="geometry" />
        </mxCell>
        <mxCell id="i6-yZ0_YRzh5YXkbMCiC-31" value="投稿" style="text;strokeColor=none;align=center;fillColor=none;html=1;verticalAlign=middle;whiteSpace=wrap;rounded=0;container=1;" vertex="1" parent="1">
          <mxGeometry x="190" y="400" width="60" height="30" as="geometry" />
        </mxCell>
        <mxCell id="i6-yZ0_YRzh5YXkbMCiC-33" value="" style="endArrow=none;dashed=1;html=1;rounded=0;" edge="1" parent="1">
          <mxGeometry width="50" height="50" relative="1" as="geometry">
            <mxPoint x="534" y="430" as="sourcePoint" />
            <mxPoint x="184" y="430.26" as="targetPoint" />
          </mxGeometry>
        </mxCell>
        <mxCell id="i6-yZ0_YRzh5YXkbMCiC-36" value="投稿者：山田" style="text;strokeColor=none;align=center;fillColor=none;html=1;verticalAlign=middle;whiteSpace=wrap;rounded=0;container=1;" vertex="1" parent="1">
          <mxGeometry x="170" y="440" width="100" height="30" as="geometry" />
        </mxCell>
        <mxCell id="i6-yZ0_YRzh5YXkbMCiC-37" value="2024/7/11 12:00" style="text;strokeColor=none;align=center;fillColor=none;html=1;verticalAlign=middle;whiteSpace=wrap;rounded=0;container=1;" vertex="1" parent="1">
          <mxGeometry x="265" y="440" width="100" height="30" as="geometry" />
        </mxCell>
        <mxCell id="i6-yZ0_YRzh5YXkbMCiC-38" value="" style="rounded=0;whiteSpace=wrap;html=1;" vertex="1" parent="1">
          <mxGeometry x="190" y="470" width="170" height="30" as="geometry" />
        </mxCell>
        <mxCell id="i6-yZ0_YRzh5YXkbMCiC-39" value="👍17 イイね" style="text;strokeColor=none;align=center;fillColor=none;html=1;verticalAlign=middle;whiteSpace=wrap;rounded=0;container=1;" vertex="1" parent="1">
          <mxGeometry x="210" y="500" width="100" height="30" as="geometry" />
        </mxCell>
        <mxCell id="i6-yZ0_YRzh5YXkbMCiC-40" value="返信" style="text;strokeColor=none;align=center;fillColor=none;html=1;verticalAlign=middle;whiteSpace=wrap;rounded=0;container=1;" vertex="1" parent="1">
          <mxGeometry x="180" y="500" width="60" height="30" as="geometry" />
        </mxCell>
        <mxCell id="i6-yZ0_YRzh5YXkbMCiC-41" value="編集" style="text;strokeColor=none;align=center;fillColor=none;html=1;verticalAlign=middle;whiteSpace=wrap;rounded=0;container=1;" vertex="1" parent="1">
          <mxGeometry x="300" y="500" width="60" height="30" as="geometry" />
        </mxCell>
        <mxCell id="i6-yZ0_YRzh5YXkbMCiC-42" value="削除" style="text;strokeColor=none;align=center;fillColor=none;html=1;verticalAlign=middle;whiteSpace=wrap;rounded=0;container=1;" vertex="1" parent="1">
          <mxGeometry x="340" y="500" width="60" height="30" as="geometry" />
        </mxCell>
        <mxCell id="i6-yZ0_YRzh5YXkbMCiC-44" value="" style="triangle;whiteSpace=wrap;html=1;rotation=90;" vertex="1" parent="1">
          <mxGeometry x="190" y="530" width="10" height="20" as="geometry" />
        </mxCell>
        <mxCell id="i6-yZ0_YRzh5YXkbMCiC-45" value="2件の返信" style="text;strokeColor=none;align=center;fillColor=none;html=1;verticalAlign=middle;whiteSpace=wrap;rounded=0;container=1;" vertex="1" parent="1">
          <mxGeometry x="200" y="525" width="100" height="30" as="geometry" />
        </mxCell>
        <mxCell id="i6-yZ0_YRzh5YXkbMCiC-46" value="" style="endArrow=none;dashed=1;html=1;rounded=0;" edge="1" parent="1">
          <mxGeometry width="50" height="50" relative="1" as="geometry">
            <mxPoint x="534" y="555" as="sourcePoint" />
            <mxPoint x="184" y="555.26" as="targetPoint" />
          </mxGeometry>
        </mxCell>
        <mxCell id="i6-yZ0_YRzh5YXkbMCiC-48" value="" style="rounded=0;whiteSpace=wrap;html=1;" vertex="1" parent="1">
          <mxGeometry x="-100" y="670" width="290" height="190" as="geometry" />
        </mxCell>
        <mxCell id="i6-yZ0_YRzh5YXkbMCiC-49" value="LARAVEL掲示板" style="text;strokeColor=none;align=center;fillColor=none;html=1;verticalAlign=middle;whiteSpace=wrap;rounded=0;container=1;" vertex="1" parent="1">
          <mxGeometry x="-90" y="680" width="100" height="30" as="geometry" />
        </mxCell>
        <mxCell id="i6-yZ0_YRzh5YXkbMCiC-50" value="" style="endArrow=none;html=1;rounded=0;" edge="1" parent="1">
          <mxGeometry width="50" height="50" relative="1" as="geometry">
            <mxPoint x="170" y="720" as="sourcePoint" />
            <mxPoint x="-89.75999999999999" y="720" as="targetPoint" />
            <Array as="points" />
          </mxGeometry>
        </mxCell>
        <mxCell id="i6-yZ0_YRzh5YXkbMCiC-52" value="ログイン中：山田様　ログアウト" style="text;strokeColor=none;align=center;fillColor=none;html=1;verticalAlign=middle;whiteSpace=wrap;rounded=0;container=1;" vertex="1" parent="1">
          <mxGeometry x="50" y="680" width="130" height="30" as="geometry" />
        </mxCell>
        <mxCell id="i6-yZ0_YRzh5YXkbMCiC-95" value="返信メッセージ投稿欄" style="text;strokeColor=none;align=center;fillColor=none;html=1;verticalAlign=middle;whiteSpace=wrap;rounded=0;container=1;" vertex="1" parent="1">
          <mxGeometry x="-90" y="730" width="130" height="30" as="geometry" />
        </mxCell>
        <mxCell id="i6-yZ0_YRzh5YXkbMCiC-96" value="" style="rounded=0;whiteSpace=wrap;html=1;" vertex="1" parent="1">
          <mxGeometry x="-90" y="760" width="140" height="40" as="geometry" />
        </mxCell>
        <mxCell id="i6-yZ0_YRzh5YXkbMCiC-97" value="投稿" style="text;strokeColor=none;align=center;fillColor=none;html=1;verticalAlign=middle;whiteSpace=wrap;rounded=0;container=1;" vertex="1" parent="1">
          <mxGeometry x="-90" y="810" width="60" height="30" as="geometry" />
        </mxCell>
        <mxCell id="i6-yZ0_YRzh5YXkbMCiC-98" value="" style="rounded=0;whiteSpace=wrap;html=1;" vertex="1" parent="1">
          <mxGeometry x="230" y="760" width="290" height="190" as="geometry" />
        </mxCell>
        <mxCell id="i6-yZ0_YRzh5YXkbMCiC-100" value="LARAVEL掲示板" style="text;strokeColor=none;align=center;fillColor=none;html=1;verticalAlign=middle;whiteSpace=wrap;rounded=0;container=1;" vertex="1" parent="1">
          <mxGeometry x="240" y="770" width="100" height="30" as="geometry" />
        </mxCell>
        <mxCell id="i6-yZ0_YRzh5YXkbMCiC-101" value="ログイン中：山田様　ログアウト" style="text;strokeColor=none;align=center;fillColor=none;html=1;verticalAlign=middle;whiteSpace=wrap;rounded=0;container=1;" vertex="1" parent="1">
          <mxGeometry x="385" y="770" width="130" height="30" as="geometry" />
        </mxCell>
        <mxCell id="i6-yZ0_YRzh5YXkbMCiC-102" value="" style="endArrow=none;html=1;rounded=0;" edge="1" parent="1">
          <mxGeometry width="50" height="50" relative="1" as="geometry">
            <mxPoint x="509.76" y="810" as="sourcePoint" />
            <mxPoint x="250" y="810" as="targetPoint" />
            <Array as="points" />
          </mxGeometry>
        </mxCell>
        <mxCell id="i6-yZ0_YRzh5YXkbMCiC-103" value="返信" style="text;strokeColor=none;align=center;fillColor=none;html=1;verticalAlign=middle;whiteSpace=wrap;rounded=0;container=1;" vertex="1" parent="1">
          <mxGeometry x="-100" y="630" width="100" height="30" as="geometry" />
        </mxCell>
        <mxCell id="i6-yZ0_YRzh5YXkbMCiC-104" value="編集" style="text;strokeColor=none;align=center;fillColor=none;html=1;verticalAlign=middle;whiteSpace=wrap;rounded=0;container=1;" vertex="1" parent="1">
          <mxGeometry x="325" y="720" width="100" height="30" as="geometry" />
        </mxCell>
        <mxCell id="i6-yZ0_YRzh5YXkbMCiC-105" value="メッセージ編集欄" style="text;strokeColor=none;align=center;fillColor=none;html=1;verticalAlign=middle;whiteSpace=wrap;rounded=0;container=1;" vertex="1" parent="1">
          <mxGeometry x="240" y="820" width="130" height="30" as="geometry" />
        </mxCell>
        <mxCell id="i6-yZ0_YRzh5YXkbMCiC-106" value="投稿内容の表示" style="rounded=0;whiteSpace=wrap;html=1;" vertex="1" parent="1">
          <mxGeometry x="245" y="850" width="140" height="40" as="geometry" />
        </mxCell>
        <mxCell id="i6-yZ0_YRzh5YXkbMCiC-107" value="投稿" style="text;strokeColor=none;align=center;fillColor=none;html=1;verticalAlign=middle;whiteSpace=wrap;rounded=0;container=1;" vertex="1" parent="1">
          <mxGeometry x="245" y="900" width="60" height="30" as="geometry" />
        </mxCell>
      </root>
    </mxGraphModel>
  </diagram>
</mxfile>
